<svg xmlns="http://www.w3.org/2000/svg" xmlns:xlink="http://www.w3.org/1999/xlink" version="1.1" width="256" height="256" viewBox="0 0 256 256" xml:space="preserve">
<desc>Created with Fabric.js 1.7.22</desc>
<defs>
</defs>
<g transform="translate(128 128) scale(0.72 0.72)" style="">
	<g style="stroke: none; stroke-width: 0; stroke-dasharray: none; stroke-linecap: butt; stroke-linejoin: miter; stroke-miterlimit: 10; fill: none; fill-rule: nonzero; opacity: 1;" transform="translate(-175.05 -175.05) scale(3.89 3.89)" >
	<path d="M 8.09 25.001 c -0.256 0 -0.512 -0.098 -0.707 -0.293 c -0.391 -0.391 -0.391 -1.023 0 -1.414 l 7.577 -7.577 c 0.391 -0.391 1.023 -0.391 1.414 0 s 0.391 1.023 0 1.414 l -7.577 7.577 C 8.602 24.903 8.346 25.001 8.09 25.001 z" style="stroke: none; stroke-width: 1; stroke-dasharray: none; stroke-linecap: butt; stroke-linejoin: miter; stroke-miterlimit: 10; fill: rgb(255,255,255); fill-rule: nonzero; opacity: 1;" transform=" matrix(1 0 0 1 0 0) " stroke-linecap="round" />
	<path d="M 20.364 21.212 c -0.256 0 -0.512 -0.098 -0.707 -0.293 c -0.391 -0.391 -0.391 -1.024 0 -1.414 l 3.567 -3.567 c 0.391 -0.391 1.023 -0.391 1.414 0 s 0.391 1.024 0 1.414 l -3.567 3.567 C 20.875 21.115 20.62 21.212 20.364 21.212 z" style="stroke: none; stroke-width: 1; stroke-dasharray: none; stroke-linecap: butt; stroke-linejoin: miter; stroke-miterlimit: 10; fill: rgb(255,255,255); fill-rule: nonzero; opacity: 1;" transform=" matrix(1 0 0 1 0 0) " stroke-linecap="round" />
	<path d="M 8.312 33.265 c -0.256 0 -0.512 -0.098 -0.707 -0.293 c -0.391 -0.391 -0.391 -1.023 0 -1.414 l 8.736 -8.736 c 0.391 -0.391 1.023 -0.391 1.414 0 s 0.391 1.023 0 1.414 l -8.736 8.736 C 8.823 33.167 8.567 33.265 8.312 33.265 z" style="stroke: none; stroke-width: 1; stroke-dasharray: none; stroke-linecap: butt; stroke-linejoin: miter; stroke-miterlimit: 10; fill: rgb(255,255,255); fill-rule: nonzero; opacity: 1;" transform=" matrix(1 0 0 1 0 0) " stroke-linecap="round" />
	<path d="M 86.018 8.174 H 3.982 C 1.786 8.174 0 9.96 0 12.156 v 53.425 c 0 2.196 1.786 3.982 3.982 3.982 H 35.72 v 8.645 h -5.51 c -0.552 0 -1 0.447 -1 1 s 0.448 1 1 1 h 5.51 h 18.559 h 5.51 c 0.553 0 1 -0.447 1 -1 s -0.447 -1 -1 -1 h -5.51 v -8.645 h 31.738 c 2.196 0 3.982 -1.786 3.982 -3.982 V 12.156 C 90 9.96 88.214 8.174 86.018 8.174 z M 52.279 78.208 H 37.72 v -8.645 h 14.559 V 78.208 z M 88 65.581 c 0 1.093 -0.89 1.982 -1.982 1.982 H 54.279 H 35.72 H 3.982 C 2.889 67.563 2 66.674 2 65.581 V 12.156 c 0 -1.093 0.889 -1.982 1.982 -1.982 h 82.036 c 1.093 0 1.982 0.889 1.982 1.982 V 65.581 z" style="stroke: none; stroke-width: 1; stroke-dasharray: none; stroke-linecap: butt; stroke-linejoin: miter; stroke-miterlimit: 10; fill: rgb(255,255,255); fill-rule: nonzero; opacity: 1;" transform=" matrix(1 0 0 1 0 0) " stroke-linecap="round" />
</g>
</g>
</svg>