<svg xmlns="http://www.w3.org/2000/svg" xmlns:xlink="http://www.w3.org/1999/xlink" version="1.1" width="256" height="256" viewBox="0 0 256 256" xml:space="preserve">
<desc>Created with Fabric.js 1.7.22</desc>
<defs>
</defs>
<g transform="translate(128 128) scale(0.72 0.72)" style="">
	<g style="stroke: none; stroke-width: 0; stroke-dasharray: none; stroke-linecap: butt; stroke-linejoin: miter; stroke-miterlimit: 10; fill: none; fill-rule: nonzero; opacity: 1;" transform="translate(-175.05 -175.05) scale(3.89 3.89)" >
	<path d="M 85.739 48.549 h -0.357 c -0.353 -13.526 -7.301 -25.435 -17.749 -32.618 c -0.009 -0.009 -0.012 -0.021 -0.021 -0.029 c -0.04 -0.037 -0.09 -0.052 -0.134 -0.081 c -6.544 -4.454 -14.441 -7.062 -22.937 -7.062 c -8.496 0 -16.393 2.608 -22.937 7.062 c -0.044 0.029 -0.094 0.044 -0.134 0.081 c -0.009 0.008 -0.012 0.02 -0.021 0.029 C 10.985 23.123 4.032 35.056 3.698 48.606 C 1.616 48.885 0 50.653 0 52.81 v 24.172 c 0 2.35 1.911 4.261 4.261 4.261 h 10.815 c 0.552 0 1 -0.447 1 -1 V 49.549 c 0 -0.553 -0.448 -1 -1 -1 H 5.699 C 6.045 35.95 12.41 24.834 22.021 17.976 l 3.826 4.154 c 0.327 0.356 0.863 0.426 1.27 0.167 c 5.24 -3.316 11.265 -5.07 17.423 -5.07 c 6.158 0 12.182 1.753 17.422 5.07 c 0.165 0.104 0.351 0.155 0.535 0.155 c 0.271 0 0.54 -0.111 0.735 -0.323 l 3.826 -4.155 c 9.612 6.858 15.977 17.974 16.322 30.573 h -8.458 c -0.553 0 -1 0.447 -1 1 v 30.693 c 0 0.553 0.447 1 1 1 h 10.815 c 2.35 0 4.261 -1.911 4.261 -4.261 V 52.81 C 90 50.46 88.089 48.549 85.739 48.549 z M 14.076 79.242 H 4.261 C 3.014 79.242 2 78.228 2 76.981 V 52.81 c 0 -1.246 1.014 -2.261 2.261 -2.261 h 9.815 V 79.242 z M 62.321 20.169 c -5.392 -3.235 -11.521 -4.941 -17.781 -4.941 c -6.26 0 -12.389 1.706 -17.78 4.941 l -3.063 -3.325 c 6.029 -3.847 13.177 -6.087 20.843 -6.087 c 7.666 0 14.814 2.24 20.843 6.086 L 62.321 20.169 z M 88 76.981 c 0 1.246 -1.015 2.261 -2.261 2.261 h -9.815 V 50.549 h 9.815 c 1.246 0 2.261 1.015 2.261 2.261 V 76.981 z" style="stroke: none; stroke-width: 1; stroke-dasharray: none; stroke-linecap: butt; stroke-linejoin: miter; stroke-miterlimit: 10; fill: rgb(255,255,255); fill-rule: nonzero; opacity: 1;" transform=" matrix(1 0 0 1 0 0) " stroke-linecap="round" />
	<path d="M 6 69.551 c -0.552 0 -1 -0.447 -1 -1 V 54.24 c 0 -0.553 0.448 -1 1 -1 s 1 0.447 1 1 v 14.311 C 7 69.104 6.552 69.551 6 69.551 z" style="stroke: none; stroke-width: 1; stroke-dasharray: none; stroke-linecap: butt; stroke-linejoin: miter; stroke-miterlimit: 10; fill: rgb(255,255,255); fill-rule: nonzero; opacity: 1;" transform=" matrix(1 0 0 1 0 0) " stroke-linecap="round" />
	<path d="M 6 76.551 c -0.552 0 -1 -0.447 -1 -1 v -3 c 0 -0.553 0.448 -1 1 -1 s 1 0.447 1 1 v 3 C 7 76.104 6.552 76.551 6 76.551 z" style="stroke: none; stroke-width: 1; stroke-dasharray: none; stroke-linecap: butt; stroke-linejoin: miter; stroke-miterlimit: 10; fill: rgb(255,255,255); fill-rule: nonzero; opacity: 1;" transform=" matrix(1 0 0 1 0 0) " stroke-linecap="round" />
	<path d="M 84 69.551 c -0.553 0 -1 -0.447 -1 -1 V 54.24 c 0 -0.553 0.447 -1 1 -1 s 1 0.447 1 1 v 14.311 C 85 69.104 84.553 69.551 84 69.551 z" style="stroke: none; stroke-width: 1; stroke-dasharray: none; stroke-linecap: butt; stroke-linejoin: miter; stroke-miterlimit: 10; fill: rgb(255,255,255); fill-rule: nonzero; opacity: 1;" transform=" matrix(1 0 0 1 0 0) " stroke-linecap="round" />
	<path d="M 84 76.551 c -0.553 0 -1 -0.447 -1 -1 v -3 c 0 -0.553 0.447 -1 1 -1 s 1 0.447 1 1 v 3 C 85 76.104 84.553 76.551 84 76.551 z" style="stroke: none; stroke-width: 1; stroke-dasharray: none; stroke-linecap: butt; stroke-linejoin: miter; stroke-miterlimit: 10; fill: rgb(255,255,255); fill-rule: nonzero; opacity: 1;" transform=" matrix(1 0 0 1 0 0) " stroke-linecap="round" />
</g>
</g>
</svg>